<svg id="kity_svg_6" xmlns="http://www.w3.org/2000/svg" xmlns:xlink="http://www.w3.org/1999/xlink" version="1.1" width="644" height="1158" style="background: rgb(251, 251, 251); visibility: visible;" viewBox="0 0 644 1158"><defs id="kity_defs_7"><linearGradient id="kity_linearGradient_17" x1="0" y1="0" x2="0" y2="1"><stop id="kity_stop_18" offset="0" stop-color="rgb(255, 255, 255)"></stop><stop id="kity_stop_19" offset="1" stop-color="rgb(204, 204, 204)"></stop></linearGradient><marker id="kity_marker_2" orient="auto" refX="6" refY="0" viewBox="-7 -7 14 14" markerWidth="7" markerHeight="7" markerUnits="userSpaceOnUse"><path id="kity_path_3" fill="rgb(115, 161, 191)" stroke="none" d="M6,0A6,6,0,1,1,-6,0A6,6,0,1,1,6,0"></path></marker></defs><g id="kity_g_8"><g id="minder1" text-rendering="optimize-speed"><g id="minder_connect_group1"><path id="kity_path_31" fill="none" stroke="rgb(115, 161, 191)" stroke-width="1" d="M73.5,690.5A69,270,0,0,1,142.5,420.5"></path><path id="kity_path_39" fill="none" stroke="rgb(115, 161, 191)" stroke-width="1" d="M73.5,690.5A69,270,0,0,0,142.5,960.5"></path><path id="kity_path_47" fill="none" stroke="rgb(115, 161, 191)" stroke-width="1" d="M326.5,535.5C334.5,535.5,334.5,444.5,342.5,444.5"></path><path id="kity_path_55" fill="none" stroke="rgb(115, 161, 191)" stroke-width="1" d="M326.5,535.5C334.5,535.5,334.5,561.5,342.5,561.5"></path><path id="kity_path_63" fill="none" stroke="rgb(115, 161, 191)" stroke-width="1" d="M240.5,420.5C248.5,420.5,248.5,142.5,256.5,142.5"></path><path id="kity_path_71" fill="none" stroke="rgb(115, 161, 191)" stroke-width="1" d="M240.5,420.5C248.5,420.5,248.5,535.5,256.5,535.5"></path><path id="kity_path_79" fill="none" stroke="rgb(115, 161, 191)" stroke-width="1" d="M326.5,535.5C334.5,535.5,334.5,626.5,342.5,626.5"></path><path id="kity_path_87" fill="none" stroke="rgb(115, 161, 191)" stroke-width="1" d="M240.5,420.5C248.5,420.5,248.5,698.5,256.5,698.5"></path><path id="kity_path_95" fill="none" stroke="rgb(115, 161, 191)" stroke-width="1" d="M352.5,100.5C360.5,100.5,360.5,68.5,368.5,68.5"></path><path id="kity_path_127" fill="none" stroke="rgb(115, 161, 191)" stroke-width="1" d="M352.5,100.5C360.5,100.5,360.5,133.5,368.5,133.5"></path><path id="kity_path_175" fill="none" stroke="rgb(115, 161, 191)" stroke-width="1" d="M302.5,142.5C310.5,142.5,310.5,184.5,318.5,184.5"></path><path id="kity_path_183" fill="none" stroke="rgb(115, 161, 191)" stroke-width="1" d="M302.5,142.5C310.5,142.5,310.5,100.5,318.5,100.5"></path><path id="kity_path_190" fill="none" stroke="rgb(115, 161, 191)" stroke-width="1" d="M405.5,68.5C413.5,68.5,413.5,29.5,421.5,29.5"></path><path id="kity_path_191" fill="none" stroke="rgb(115, 161, 191)" stroke-width="1" d="M405.5,68.5C413.5,68.5,413.5,55.5,421.5,55.5"></path><path id="kity_path_192" fill="none" stroke="rgb(115, 161, 191)" stroke-width="1" d="M405.5,68.5C413.5,68.5,413.5,81.5,421.5,81.5"></path><path id="kity_path_193" fill="none" stroke="rgb(115, 161, 191)" stroke-width="1" d="M405.5,68.5C413.5,68.5,413.5,107.5,421.5,107.5"></path><path id="kity_path_195" fill="none" stroke="rgb(115, 161, 191)" stroke-width="1" d="M375.5,184.5C383.5,184.5,383.5,158.5,391.5,158.5"></path><path id="kity_path_203" fill="none" stroke="rgb(115, 161, 191)" stroke-width="1" d="M375.5,184.5C383.5,184.5,383.5,184.5,391.5,184.5"></path><path id="kity_path_211" fill="none" stroke="rgb(115, 161, 191)" stroke-width="1" d="M302.5,698.5C310.5,698.5,310.5,666.5,318.5,666.5"></path><path id="kity_path_219" fill="none" stroke="rgb(115, 161, 191)" stroke-width="1" d="M420.5,666.5C428.5,666.5,428.5,653.5,436.5,653.5"></path><path id="kity_path_227" fill="none" stroke="rgb(115, 161, 191)" stroke-width="1" d="M419.5,444.5C427.5,444.5,427.5,392.5,435.5,392.5"></path><path id="kity_path_235" fill="none" stroke="rgb(115, 161, 191)" stroke-width="1" d="M419.5,444.5C427.5,444.5,427.5,418.5,435.5,418.5"></path><path id="kity_path_243" fill="none" stroke="rgb(115, 161, 191)" stroke-width="1" d="M419.5,444.5C427.5,444.5,427.5,444.5,435.5,444.5"></path><path id="kity_path_251" fill="none" stroke="rgb(115, 161, 191)" stroke-width="1" d="M381.5,561.5C389.5,561.5,389.5,522.5,397.5,522.5"></path><path id="kity_path_259" fill="none" stroke="rgb(115, 161, 191)" stroke-width="1" d="M381.5,561.5C389.5,561.5,389.5,548.5,397.5,548.5"></path><path id="kity_path_267" fill="none" stroke="rgb(115, 161, 191)" stroke-width="1" d="M419.5,444.5C427.5,444.5,427.5,470.5,435.5,470.5"></path><path id="kity_path_275" fill="none" stroke="rgb(115, 161, 191)" stroke-width="1" d="M381.5,561.5C389.5,561.5,389.5,574.5,397.5,574.5"></path><path id="kity_path_283" fill="none" stroke="rgb(115, 161, 191)" stroke-width="1" d="M388.5,626.5C396.5,626.5,396.5,626.5,404.5,626.5"></path><path id="kity_path_291" fill="none" stroke="rgb(115, 161, 191)" stroke-width="1" d="M240.5,420.5C248.5,420.5,248.5,295.5,256.5,295.5"></path><path id="kity_path_299" fill="none" stroke="rgb(115, 161, 191)" stroke-width="1" d="M290.5,295.5C298.5,295.5,298.5,237.5,306.5,237.5"></path><path id="kity_path_307" fill="none" stroke="rgb(115, 161, 191)" stroke-width="1" d="M290.5,295.5C298.5,295.5,298.5,263.5,306.5,263.5"></path><path id="kity_path_315" fill="none" stroke="rgb(115, 161, 191)" stroke-width="1" d="M290.5,295.5C298.5,295.5,298.5,302.5,306.5,302.5"></path><path id="kity_path_323" fill="none" stroke="rgb(115, 161, 191)" stroke-width="1" d="M364.5,302.5C372.5,302.5,372.5,289.5,380.5,289.5"></path><path id="kity_path_331" fill="none" stroke="rgb(115, 161, 191)" stroke-width="1" d="M364.5,302.5C372.5,302.5,372.5,315.5,380.5,315.5"></path><path id="kity_path_339" fill="none" stroke="rgb(115, 161, 191)" stroke-width="1" d="M240.5,960.5C248.5,960.5,248.5,960.5,256.5,960.5"></path><path id="kity_path_347" fill="none" stroke="rgb(115, 161, 191)" stroke-width="1" d="M311.5,960.5C319.5,960.5,319.5,921.5,327.5,921.5"></path><path id="kity_path_355" fill="none" stroke="rgb(115, 161, 191)" stroke-width="1" d="M311.5,960.5C319.5,960.5,319.5,986.5,327.5,986.5"></path><path id="kity_path_363" fill="none" stroke="rgb(115, 161, 191)" stroke-width="1" d="M311.5,960.5C319.5,960.5,319.5,1038.5,327.5,1038.5"></path><path id="kity_path_371" fill="none" stroke="rgb(115, 161, 191)" stroke-width="1" d="M311.5,960.5C319.5,960.5,319.5,1103.5,327.5,1103.5"></path><path id="kity_path_379" fill="none" stroke="rgb(115, 161, 191)" stroke-width="1" d="M346.5,237.5C354.5,237.5,354.5,237.5,362.5,237.5"></path><path id="kity_path_387" fill="none" stroke="rgb(115, 161, 191)" stroke-width="1" d="M290.5,295.5C298.5,295.5,298.5,354.5,306.5,354.5"></path><path id="kity_path_395" fill="none" stroke="rgb(115, 161, 191)" stroke-width="1" d="M388.5,354.5C396.5,354.5,396.5,341.5,404.5,341.5"></path><path id="kity_path_403" fill="none" stroke="rgb(115, 161, 191)" stroke-width="1" d="M388.5,354.5C396.5,354.5,396.5,367.5,404.5,367.5"></path><path id="kity_path_411" fill="none" stroke="rgb(115, 161, 191)" stroke-width="1" d="M419.5,444.5C427.5,444.5,427.5,496.5,435.5,496.5"></path><path id="kity_path_419" fill="none" stroke="rgb(115, 161, 191)" stroke-width="1" d="M381.5,561.5C389.5,561.5,389.5,600.5,397.5,600.5"></path><path id="kity_path_427" fill="none" stroke="rgb(115, 161, 191)" stroke-width="1" d="M302.5,698.5C310.5,698.5,310.5,731.5,318.5,731.5"></path><path id="kity_path_435" fill="none" stroke="rgb(115, 161, 191)" stroke-width="1" d="M420.5,666.5C428.5,666.5,428.5,679.5,436.5,679.5"></path><path id="kity_path_443" fill="none" stroke="rgb(115, 161, 191)" stroke-width="1" d="M302.5,698.5C310.5,698.5,310.5,705.5,318.5,705.5"></path><path id="kity_path_451" fill="none" stroke="rgb(115, 161, 191)" stroke-width="1" d="M385.5,921.5C393.5,921.5,393.5,895.5,401.5,895.5"></path><path id="kity_path_459" fill="none" stroke="rgb(115, 161, 191)" stroke-width="1" d="M385.5,921.5C393.5,921.5,393.5,921.5,401.5,921.5"></path><path id="kity_path_467" fill="none" stroke="rgb(115, 161, 191)" stroke-width="1" d="M385.5,921.5C393.5,921.5,393.5,947.5,401.5,947.5"></path><path id="kity_path_491" fill="none" stroke="rgb(115, 161, 191)" stroke-width="1" d="M311.5,960.5C319.5,960.5,319.5,817.5,327.5,817.5"></path><path id="kity_path_499" fill="none" stroke="rgb(115, 161, 191)" stroke-width="1" d="M385.5,817.5C393.5,817.5,393.5,765.5,401.5,765.5"></path><path id="kity_path_507" fill="none" stroke="rgb(115, 161, 191)" stroke-width="1" d="M385.5,817.5C393.5,817.5,393.5,791.5,401.5,791.5"></path><path id="kity_path_515" fill="none" stroke="rgb(115, 161, 191)" stroke-width="1" d="M385.5,817.5C393.5,817.5,393.5,817.5,401.5,817.5"></path><path id="kity_path_523" fill="none" stroke="rgb(115, 161, 191)" stroke-width="1" d="M385.5,817.5C393.5,817.5,393.5,843.5,401.5,843.5"></path><path id="kity_path_531" fill="none" stroke="rgb(115, 161, 191)" stroke-width="1" d="M385.5,817.5C393.5,817.5,393.5,869.5,401.5,869.5"></path><path id="kity_path_538" fill="none" stroke="rgb(115, 161, 191)" stroke-width="1" d="M397.5,986.5C405.5,986.5,405.5,973.5,413.5,973.5"></path><path id="kity_path_539" fill="none" stroke="rgb(115, 161, 191)" stroke-width="1" d="M397.5,986.5C405.5,986.5,405.5,999.5,413.5,999.5"></path><path id="kity_path_541" fill="none" stroke="rgb(115, 161, 191)" stroke-width="1" d="M409.5,1038.5C417.5,1038.5,417.5,1025.5,425.5,1025.5"></path><path id="kity_path_549" fill="none" stroke="rgb(115, 161, 191)" stroke-width="1" d="M409.5,1038.5C417.5,1038.5,417.5,1051.5,425.5,1051.5"></path><path id="kity_path_557" fill="none" stroke="rgb(115, 161, 191)" stroke-width="1" d="M385.5,1103.5C393.5,1103.5,393.5,1077.5,401.5,1077.5"></path><path id="kity_path_565" fill="none" stroke="rgb(115, 161, 191)" stroke-width="1" d="M385.5,1103.5C393.5,1103.5,393.5,1103.5,401.5,1103.5"></path><path id="kity_path_573" fill="none" stroke="rgb(115, 161, 191)" stroke-width="1" d="M385.5,1103.5C393.5,1103.5,393.5,1129.5,401.5,1129.5"></path><path id="kity_path_581" fill="none" stroke="rgb(115, 161, 191)" stroke-width="1" d="M375.5,184.5C383.5,184.5,383.5,210.5,391.5,210.5"></path></g><g id="minder_node1"><path id="node_outline1" fill="rgb(115, 161, 191)" stroke="rgb(115, 161, 191)" d="M25.5,676.5h96a5,5,0,0,1,5,5v18a5,5,0,0,1,-5,5h-96a5,5,0,0,1,-5,-5v-18a5,5,0,0,1,5,-5z" stroke-width="3"></path><g id="node_text1" fill="white"><text id="kity_text_22" text-rendering="inherit" font-size="16" dy=".8em" y="682.5" x="32.5">技术Scope</text></g></g><g id="kity_g_14" display="none"><path id="kity_path_15" fill="rgba(0, 92, 153, 0.5)" stroke="none" d="M309.5,943.5h58v4h-58z"></path><path id="kity_path_16" fill="none" stroke="rgb(0, 76, 128)" d="M309.5,943.5L367.5,943.5" stroke-width="1"></path></g><g id="minder_node2"><g id="node_expander1" style="cursor: pointer;"><path id="kity_path_36" fill="white" stroke="gray" d="M143.5,420.5A6,6,0,1,1,131.5,420.5A6,6,0,1,1,143.5,420.5"></path><path id="kity_path_37" fill="none" stroke="gray" d="M133,420.5L142,420.5"></path></g><path id="node_outline2" fill="rgb(238, 243, 246)" stroke="rgb(115, 161, 191)" d="M147.5,407.5h90a3,3,0,0,1,3,3v20a3,3,0,0,1,-3,3h-90a3,3,0,0,1,-3,-3v-20a3,3,0,0,1,3,-3z" stroke-width="1"></path><g id="node_text2" fill="black"><text id="kity_text_33" text-rendering="inherit" font-size="14" dy=".8em" y="413.5" x="164.5">专业知识</text></g></g><g id="minder_node3"><g id="node_expander2" style="cursor: pointer;"><path id="kity_path_44" fill="white" stroke="gray" d="M143.5,960.5A6,6,0,1,1,131.5,960.5A6,6,0,1,1,143.5,960.5"></path><path id="kity_path_45" fill="none" stroke="gray" d="M133,960.5L142,960.5"></path></g><path id="node_outline3" fill="rgb(238, 243, 246)" stroke="rgb(115, 161, 191)" d="M147.5,947.5h90a3,3,0,0,1,3,3v20a3,3,0,0,1,-3,3h-90a3,3,0,0,1,-3,-3v-20a3,3,0,0,1,3,-3z" stroke-width="1"></path><g id="node_text3" fill="black"><text id="kity_text_41" text-rendering="inherit" font-size="14" dy=".8em" y="953.5" x="164.5">业务知识</text></g></g><g id="minder_node4" opacity="1"><g id="node_expander3" style="cursor: pointer;"><path id="kity_path_52" fill="white" stroke="gray" d="M342.5,444.5A6,6,0,1,1,330.5,444.5A6,6,0,1,1,342.5,444.5"></path><path id="kity_path_53" fill="none" stroke="gray" d="M332,444.5L341,444.5"></path></g><path id="node_outline4" fill="none" stroke="none" d="M347.5,435.5h67a5,5,0,0,1,5,5v8a5,5,0,0,1,-5,5h-67a5,5,0,0,1,-5,-5v-8a5,5,0,0,1,5,-5z" stroke-width="3"></path><g id="node_text4" fill="black"><text id="kity_text_49" text-rendering="inherit" font-size="12" dy=".8em" y="438.5" x="347.5">Linux Kernel</text></g></g><g id="minder_node5" opacity="1"><g id="node_expander4" style="cursor: pointer;"><path id="kity_path_60" fill="white" stroke="gray" d="M342.5,561.5A6,6,0,1,1,330.5,561.5A6,6,0,1,1,342.5,561.5"></path><path id="kity_path_61" fill="none" stroke="gray" d="M332,561.5L341,561.5"></path></g><path id="node_outline5" fill="none" stroke="none" d="M347.5,552.5h29a5,5,0,0,1,5,5v8a5,5,0,0,1,-5,5h-29a5,5,0,0,1,-5,-5v-8a5,5,0,0,1,5,-5z" stroke-width="3"></path><g id="node_text5" fill="black"><text id="kity_text_57" text-rendering="inherit" font-size="12" dy=".8em" y="555.5" x="347.5">RTOS</text></g></g><g id="minder_node6"><g id="node_expander5" style="cursor: pointer;"><path id="kity_path_68" fill="white" stroke="gray" d="M256.5,142.5A6,6,0,1,1,244.5,142.5A6,6,0,1,1,256.5,142.5"></path><path id="kity_path_69" fill="none" stroke="gray" d="M246,142.5L255,142.5"></path></g><path id="node_outline6" fill="none" stroke="none" d="M261.5,133.5h36a5,5,0,0,1,5,5v8a5,5,0,0,1,-5,5h-36a5,5,0,0,1,-5,-5v-8a5,5,0,0,1,5,-5z" stroke-width="3"></path><g id="node_text6" fill="black"><text id="kity_text_65" text-rendering="inherit" font-size="12" dy=".8em" y="136.5" x="261.5">硬件层</text></g></g><g id="minder_node7"><g id="node_expander6" style="cursor: pointer;"><path id="kity_path_76" fill="white" stroke="gray" d="M256.5,535.5A6,6,0,1,1,244.5,535.5A6,6,0,1,1,256.5,535.5"></path><path id="kity_path_77" fill="none" stroke="gray" d="M246,535.5L255,535.5"></path></g><path id="node_outline7" fill="none" stroke="none" d="M261.5,526.5h60a5,5,0,0,1,5,5v8a5,5,0,0,1,-5,5h-60a5,5,0,0,1,-5,-5v-8a5,5,0,0,1,5,-5z" stroke-width="3"></path><g id="node_text7" fill="black"><text id="kity_text_73" text-rendering="inherit" font-size="12" dy=".8em" y="529.5" x="261.5">操作系统层</text></g></g><g id="minder_node8"><g id="node_expander7" style="cursor: pointer;"><path id="kity_path_84" fill="white" stroke="gray" d="M342.5,626.5A6,6,0,1,1,330.5,626.5A6,6,0,1,1,342.5,626.5"></path><path id="kity_path_85" fill="none" stroke="gray" d="M332,626.5L341,626.5"></path></g><path id="node_outline8" fill="none" stroke="none" d="M347.5,617.5h36a5,5,0,0,1,5,5v8a5,5,0,0,1,-5,5h-36a5,5,0,0,1,-5,-5v-8a5,5,0,0,1,5,-5z" stroke-width="3"></path><g id="node_text8" fill="black"><text id="kity_text_81" text-rendering="inherit" font-size="12" dy=".8em" y="620.5" x="347.5">OPTEE</text></g></g><g id="minder_node9"><g id="node_expander8" style="cursor: pointer;"><path id="kity_path_92" fill="white" stroke="gray" d="M256.5,698.5A6,6,0,1,1,244.5,698.5A6,6,0,1,1,256.5,698.5"></path><path id="kity_path_93" fill="none" stroke="gray" d="M246,698.5L255,698.5"></path></g><path id="node_outline9" fill="none" stroke="none" d="M261.5,689.5h36a5,5,0,0,1,5,5v8a5,5,0,0,1,-5,5h-36a5,5,0,0,1,-5,-5v-8a5,5,0,0,1,5,-5z" stroke-width="3"></path><g id="node_text9" fill="black"><text id="kity_text_89" text-rendering="inherit" font-size="12" dy=".8em" y="692.5" x="261.5">应用层</text></g></g><g id="minder_node10" opacity="1"><g id="node_expander9" style="cursor: pointer;"><path id="kity_path_100" fill="white" stroke="gray" d="M368.5,68.5A6,6,0,1,1,356.5,68.5A6,6,0,1,1,368.5,68.5"></path><path id="kity_path_101" fill="none" stroke="gray" d="M358,68.5L367,68.5"></path></g><path id="node_outline10" fill="none" stroke="none" d="M373.5,59.5h27a5,5,0,0,1,5,5v8a5,5,0,0,1,-5,5h-27a5,5,0,0,1,-5,-5v-8a5,5,0,0,1,5,-5z" stroke-width="3"></path><g id="node_text10" fill="black"><text id="kity_text_97" text-rendering="inherit" font-size="12" dy=".8em" y="62.5" x="373.5">ARM</text></g></g><g id="minder_node14" opacity="1"><g id="node_expander13" style="cursor: pointer;" display="none"><path id="kity_path_132" fill="white" stroke="gray" d="M368.5,133.5A6,6,0,1,1,356.5,133.5A6,6,0,1,1,368.5,133.5"></path><path id="kity_path_133" fill="none" stroke="gray"></path></g><path id="node_outline14" fill="#c00000" stroke="none" d="M373.5,124.5h38a5,5,0,0,1,5,5v8a5,5,0,0,1,-5,5h-38a5,5,0,0,1,-5,-5v-8a5,5,0,0,1,5,-5z" stroke-width="3"></path><g id="node_text14" fill="black"><text id="kity_text_129" text-rendering="inherit" font-size="12" dy=".8em" y="127.5" x="373.5">RSIC-V</text></g></g><g id="minder_node20" opacity="1"><g id="node_expander19" style="cursor: pointer;"><path id="kity_path_180" fill="white" stroke="gray" d="M318.5,184.5A6,6,0,1,1,306.5,184.5A6,6,0,1,1,318.5,184.5"></path><path id="kity_path_181" fill="none" stroke="gray" d="M308,184.5L317,184.5"></path></g><path id="node_outline20" fill="none" stroke="none" d="M323.5,175.5h47a5,5,0,0,1,5,5v8a5,5,0,0,1,-5,5h-47a5,5,0,0,1,-5,-5v-8a5,5,0,0,1,5,-5z" stroke-width="3"></path><g id="node_text20" fill="black"><text id="kity_text_177" text-rendering="inherit" font-size="12" dy=".8em" y="178.5" x="323.5">Board级</text></g></g><g id="minder_node21"><g id="node_expander20" style="cursor: pointer;"><path id="kity_path_188" fill="white" stroke="gray" d="M318.5,100.5A6,6,0,1,1,306.5,100.5A6,6,0,1,1,318.5,100.5"></path><path id="kity_path_189" fill="none" stroke="gray" d="M308,100.5L317,100.5"></path></g><path id="node_outline21" fill="none" stroke="none" d="M323.5,91.5h24a5,5,0,0,1,5,5v8a5,5,0,0,1,-5,5h-24a5,5,0,0,1,-5,-5v-8a5,5,0,0,1,5,-5z" stroke-width="3"></path><g id="node_text21" fill="black"><text id="kity_text_185" text-rendering="inherit" font-size="12" dy=".8em" y="94.5" x="323.5">SoC</text></g></g><g id="minder_node16"><g id="node_expander15" style="cursor: pointer;" display="none"><path id="kity_path_148" fill="white" stroke="gray" d="M421.5,29.5A6,6,0,1,1,409.5,29.5A6,6,0,1,1,421.5,29.5"></path><path id="kity_path_149" fill="none" stroke="gray"></path></g><path id="node_outline16" fill="#00b050" stroke="none" d="M426.5,20.5h36a5,5,0,0,1,5,5v8a5,5,0,0,1,-5,5h-36a5,5,0,0,1,-5,-5v-8a5,5,0,0,1,5,-5z" stroke-width="3"></path><g id="node_text16" fill="black"><text id="kity_text_145" text-rendering="inherit" font-size="12" dy=".8em" y="23.5" x="426.5">指令集</text></g></g><g id="minder_node17"><g id="node_expander16" style="cursor: pointer;" display="none"><path id="kity_path_156" fill="white" stroke="gray" d="M421.5,55.5A6,6,0,1,1,409.5,55.5A6,6,0,1,1,421.5,55.5"></path><path id="kity_path_157" fill="none" stroke="gray"></path></g><path id="node_outline17" fill="none" stroke="none" d="M426.5,46.5h48a5,5,0,0,1,5,5v8a5,5,0,0,1,-5,5h-48a5,5,0,0,1,-5,-5v-8a5,5,0,0,1,5,-5z" stroke-width="3"></path><g id="node_text17" fill="black"><text id="kity_text_153" text-rendering="inherit" font-size="12" dy=".8em" y="49.5" x="426.5">SoC设计</text></g></g><g id="minder_node18"><g id="node_expander17" style="cursor: pointer;" display="none"><path id="kity_path_164" fill="white" stroke="gray" d="M421.5,81.5A6,6,0,1,1,409.5,81.5A6,6,0,1,1,421.5,81.5"></path><path id="kity_path_165" fill="none" stroke="gray"></path></g><path id="node_outline18" fill="#00b050" stroke="none" d="M426.5,72.5h193a5,5,0,0,1,5,5v8a5,5,0,0,1,-5,5h-193a5,5,0,0,1,-5,-5v-8a5,5,0,0,1,5,-5z" stroke-width="3"></path><g id="node_text18" fill="black"><text id="kity_text_161" text-rendering="inherit" font-size="12" dy=".8em" y="75.5" x="426.5">中断/内存管理/Cache/Trustzone等</text></g></g><g id="minder_node19"><g id="node_expander18" style="cursor: pointer;" display="none"><path id="kity_path_172" fill="white" stroke="gray" d="M421.5,107.5A6,6,0,1,1,409.5,107.5A6,6,0,1,1,421.5,107.5"></path><path id="kity_path_173" fill="none" stroke="gray"></path></g><path id="node_outline19" fill="#ffc000" stroke="none" d="M426.5,98.5h145a5,5,0,0,1,5,5v8a5,5,0,0,1,-5,5h-145a5,5,0,0,1,-5,-5v-8a5,5,0,0,1,5,-5z" stroke-width="3"></path><g id="node_text19" fill="black"><text id="kity_text_169" text-rendering="inherit" font-size="12" dy=".8em" y="101.5" x="426.5">ARMv8/ARMv7/Cortex-M</text></g></g><g id="minder_node22"><g id="node_expander21" style="cursor: pointer;" display="none"><path id="kity_path_200" fill="white" stroke="gray" d="M391.5,158.5A6,6,0,1,1,379.5,158.5A6,6,0,1,1,391.5,158.5"></path><path id="kity_path_201" fill="none" stroke="gray"></path></g><path id="node_outline22" fill="#00b050" stroke="none" d="M396.5,149.5h48a5,5,0,0,1,5,5v8a5,5,0,0,1,-5,5h-48a5,5,0,0,1,-5,-5v-8a5,5,0,0,1,5,-5z" stroke-width="3"></path><g id="node_text22" fill="black"><text id="kity_text_197" text-rendering="inherit" font-size="12" dy=".8em" y="152.5" x="396.5">电路设计</text></g></g><g id="minder_node23"><g id="node_expander22" style="cursor: pointer;" display="none"><path id="kity_path_208" fill="white" stroke="gray" d="M391.5,184.5A6,6,0,1,1,379.5,184.5A6,6,0,1,1,391.5,184.5"></path><path id="kity_path_209" fill="none" stroke="gray"></path></g><path id="node_outline23" fill="#00b050" stroke="none" d="M396.5,175.5h167a5,5,0,0,1,5,5v8a5,5,0,0,1,-5,5h-167a5,5,0,0,1,-5,-5v-8a5,5,0,0,1,5,-5z" stroke-width="3"></path><g id="node_text23" fill="black"><text id="kity_text_205" text-rendering="inherit" font-size="12" dy=".8em" y="178.5" x="396.5">接口协议IIC/SPI/GPIO外设 etc</text></g></g><g id="minder_node24"><g id="node_expander23" style="cursor: pointer;"><path id="kity_path_216" fill="white" stroke="gray" d="M318.5,666.5A6,6,0,1,1,306.5,666.5A6,6,0,1,1,318.5,666.5"></path><path id="kity_path_217" fill="none" stroke="gray" d="M308,666.5L317,666.5"></path></g><path id="node_outline24" fill="none" stroke="none" d="M323.5,657.5h92a5,5,0,0,1,5,5v8a5,5,0,0,1,-5,5h-92a5,5,0,0,1,-5,-5v-8a5,5,0,0,1,5,-5z" stroke-width="3"></path><g id="node_text24" fill="black"><text id="kity_text_213" text-rendering="inherit" font-size="12" dy=".8em" y="660.5" x="323.5">Linux Userspace</text></g></g><g id="minder_node25" opacity="1"><g id="node_expander24" style="cursor: pointer;" display="none"><path id="kity_path_224" fill="white" stroke="gray" d="M436.5,653.5A6,6,0,1,1,424.5,653.5A6,6,0,1,1,436.5,653.5"></path><path id="kity_path_225" fill="none" stroke="gray"></path></g><path id="node_outline25" fill="#ffc000" stroke="none" d="M441.5,644.5h39a5,5,0,0,1,5,5v8a5,5,0,0,1,-5,5h-39a5,5,0,0,1,-5,-5v-8a5,5,0,0,1,5,-5z" stroke-width="3"></path><g id="node_text25" fill="black"><text id="kity_text_221" text-rendering="inherit" font-size="12" dy=".8em" y="647.5" x="441.5">Qt GUI</text></g></g><g id="minder_node26"><g id="node_expander25" style="cursor: pointer;" display="none"><path id="kity_path_232" fill="white" stroke="gray" d="M435.5,392.5A6,6,0,1,1,423.5,392.5A6,6,0,1,1,435.5,392.5"></path><path id="kity_path_233" fill="none" stroke="gray"></path></g><path id="node_outline26" fill="#00b050" stroke="none" d="M440.5,383.5h24a5,5,0,0,1,5,5v8a5,5,0,0,1,-5,5h-24a5,5,0,0,1,-5,-5v-8a5,5,0,0,1,5,-5z" stroke-width="3"></path><g id="node_text26" fill="black"><text id="kity_text_229" text-rendering="inherit" font-size="12" dy=".8em" y="386.5" x="440.5">内存</text></g></g><g id="minder_node27"><g id="node_expander26" style="cursor: pointer;" display="none"><path id="kity_path_240" fill="white" stroke="gray" d="M435.5,418.5A6,6,0,1,1,423.5,418.5A6,6,0,1,1,435.5,418.5"></path><path id="kity_path_241" fill="none" stroke="gray"></path></g><path id="node_outline27" fill="#00b050" stroke="none" d="M440.5,409.5h24a5,5,0,0,1,5,5v8a5,5,0,0,1,-5,5h-24a5,5,0,0,1,-5,-5v-8a5,5,0,0,1,5,-5z" stroke-width="3"></path><g id="node_text27" fill="black"><text id="kity_text_237" text-rendering="inherit" font-size="12" dy=".8em" y="412.5" x="440.5">进程</text></g></g><g id="minder_node28"><g id="node_expander27" style="cursor: pointer;" display="none"><path id="kity_path_248" fill="white" stroke="gray" d="M435.5,444.5A6,6,0,1,1,423.5,444.5A6,6,0,1,1,435.5,444.5"></path><path id="kity_path_249" fill="none" stroke="gray"></path></g><path id="node_outline28" fill="#00b050" stroke="none" d="M440.5,435.5h36a5,5,0,0,1,5,5v8a5,5,0,0,1,-5,5h-36a5,5,0,0,1,-5,-5v-8a5,5,0,0,1,5,-5z" stroke-width="3"></path><g id="node_text28" fill="black"><text id="kity_text_245" text-rendering="inherit" font-size="12" dy=".8em" y="438.5" x="440.5">中断等</text></g></g><g id="minder_node29"><g id="node_expander28" style="cursor: pointer;" display="none"><path id="kity_path_256" fill="white" stroke="gray" d="M397.5,522.5A6,6,0,1,1,385.5,522.5A6,6,0,1,1,397.5,522.5"></path><path id="kity_path_257" fill="none" stroke="gray"></path></g><path id="node_outline29" fill="#c00000" stroke="none" d="M402.5,513.5h24a5,5,0,0,1,5,5v8a5,5,0,0,1,-5,5h-24a5,5,0,0,1,-5,-5v-8a5,5,0,0,1,5,-5z" stroke-width="3"></path><g id="node_text29" fill="black"><text id="kity_text_253" text-rendering="inherit" font-size="12" dy=".8em" y="516.5" x="402.5">内存</text></g></g><g id="minder_node30"><g id="node_expander29" style="cursor: pointer;" display="none"><path id="kity_path_264" fill="white" stroke="gray" d="M397.5,548.5A6,6,0,1,1,385.5,548.5A6,6,0,1,1,397.5,548.5"></path><path id="kity_path_265" fill="none" stroke="gray"></path></g><path id="node_outline30" fill="#c00000" stroke="none" d="M402.5,539.5h24a5,5,0,0,1,5,5v8a5,5,0,0,1,-5,5h-24a5,5,0,0,1,-5,-5v-8a5,5,0,0,1,5,-5z" stroke-width="3"></path><g id="node_text30" fill="black"><text id="kity_text_261" text-rendering="inherit" font-size="12" dy=".8em" y="542.5" x="402.5">任务</text></g></g><g id="minder_node31"><g id="node_expander30" style="cursor: pointer;" display="none"><path id="kity_path_272" fill="white" stroke="gray" d="M435.5,470.5A6,6,0,1,1,423.5,470.5A6,6,0,1,1,435.5,470.5"></path><path id="kity_path_273" fill="none" stroke="gray"></path></g><path id="node_outline31" fill="#00b050" stroke="none" d="M440.5,461.5h64a5,5,0,0,1,5,5v8a5,5,0,0,1,-5,5h-64a5,5,0,0,1,-5,-5v-8a5,5,0,0,1,5,-5z" stroke-width="3"></path><g id="node_text31" fill="black"><text id="kity_text_269" text-rendering="inherit" font-size="12" dy=".8em" y="464.5" x="440.5">Linux Driver</text></g></g><g id="minder_node32"><g id="node_expander31" style="cursor: pointer;" display="none"><path id="kity_path_280" fill="white" stroke="gray" d="M397.5,574.5A6,6,0,1,1,385.5,574.5A6,6,0,1,1,397.5,574.5"></path><path id="kity_path_281" fill="none" stroke="gray"></path></g><path id="node_outline32" fill="#c00000" stroke="none" d="M402.5,565.5h36a5,5,0,0,1,5,5v8a5,5,0,0,1,-5,5h-36a5,5,0,0,1,-5,-5v-8a5,5,0,0,1,5,-5z" stroke-width="3"></path><g id="node_text32" fill="black"><text id="kity_text_277" text-rendering="inherit" font-size="12" dy=".8em" y="568.5" x="402.5">中断等</text></g></g><g id="minder_node33"><g id="node_expander32" style="cursor: pointer;" display="none"><path id="kity_path_288" fill="white" stroke="gray" d="M404.5,626.5A6,6,0,1,1,392.5,626.5A6,6,0,1,1,404.5,626.5"></path><path id="kity_path_289" fill="none" stroke="gray"></path></g><path id="node_outline33" fill="#ffc000" stroke="none" d="M409.5,617.5h65a5,5,0,0,1,5,5v8a5,5,0,0,1,-5,5h-65a5,5,0,0,1,-5,-5v-8a5,5,0,0,1,5,-5z" stroke-width="3"></path><g id="node_text33" fill="black"><text id="kity_text_285" text-rendering="inherit" font-size="12" dy=".8em" y="620.5" x="409.5">Trustzone等</text></g></g><g id="minder_node34"><g id="node_expander33" style="cursor: pointer;"><path id="kity_path_296" fill="white" stroke="gray" d="M256.5,295.5A6,6,0,1,1,244.5,295.5A6,6,0,1,1,256.5,295.5"></path><path id="kity_path_297" fill="none" stroke="gray" d="M246,295.5L255,295.5"></path></g><path id="node_outline34" fill="none" stroke="none" d="M261.5,286.5h24a5,5,0,0,1,5,5v8a5,5,0,0,1,-5,5h-24a5,5,0,0,1,-5,-5v-8a5,5,0,0,1,5,-5z" stroke-width="3"></path><g id="node_text34" fill="black"><text id="kity_text_293" text-rendering="inherit" font-size="12" dy=".8em" y="289.5" x="261.5">编译</text></g></g><g id="minder_node35"><g id="node_expander34" style="cursor: pointer;"><path id="kity_path_304" fill="white" stroke="gray" d="M306.5,237.5A6,6,0,1,1,294.5,237.5A6,6,0,1,1,306.5,237.5"></path><path id="kity_path_305" fill="none" stroke="gray" d="M296,237.5L305,237.5"></path></g><path id="node_outline35" fill="none" stroke="none" d="M311.5,228.5h30a5,5,0,0,1,5,5v8a5,5,0,0,1,-5,5h-30a5,5,0,0,1,-5,-5v-8a5,5,0,0,1,5,-5z" stroke-width="3"></path><g id="node_text35" fill="black"><text id="kity_text_301" text-rendering="inherit" font-size="12" dy=".8em" y="231.5" x="311.5">GCC</text></g></g><g id="minder_node36"><g id="node_expander35" style="cursor: pointer;" display="none"><path id="kity_path_312" fill="white" stroke="gray" d="M306.5,263.5A6,6,0,1,1,294.5,263.5A6,6,0,1,1,306.5,263.5"></path><path id="kity_path_313" fill="none" stroke="gray"></path></g><path id="node_outline36" fill="#ffc000" stroke="none" d="M311.5,254.5h36a5,5,0,0,1,5,5v8a5,5,0,0,1,-5,5h-36a5,5,0,0,1,-5,-5v-8a5,5,0,0,1,5,-5z" stroke-width="3"></path><g id="node_text36" fill="black"><text id="kity_text_309" text-rendering="inherit" font-size="12" dy=".8em" y="257.5" x="311.5">链接器</text></g></g><g id="minder_node37"><g id="node_expander36" style="cursor: pointer;"><path id="kity_path_320" fill="white" stroke="gray" d="M306.5,302.5A6,6,0,1,1,294.5,302.5A6,6,0,1,1,306.5,302.5"></path><path id="kity_path_321" fill="none" stroke="gray" d="M296,302.5L305,302.5"></path></g><path id="node_outline37" fill="#ffc000" stroke="none" d="M311.5,293.5h48a5,5,0,0,1,5,5v8a5,5,0,0,1,-5,5h-48a5,5,0,0,1,-5,-5v-8a5,5,0,0,1,5,-5z" stroke-width="3"></path><g id="node_text37" fill="black"><text id="kity_text_317" text-rendering="inherit" font-size="12" dy=".8em" y="296.5" x="311.5">链接原理</text></g></g><g id="minder_node38"><g id="node_expander37" style="cursor: pointer;" display="none"><path id="kity_path_328" fill="white" stroke="gray" d="M380.5,289.5A6,6,0,1,1,368.5,289.5A6,6,0,1,1,380.5,289.5"></path><path id="kity_path_329" fill="none" stroke="gray"></path></g><path id="node_outline38" fill="#00b050" stroke="none" d="M385.5,280.5h48a5,5,0,0,1,5,5v8a5,5,0,0,1,-5,5h-48a5,5,0,0,1,-5,-5v-8a5,5,0,0,1,5,-5z" stroke-width="3"></path><g id="node_text38" fill="black"><text id="kity_text_325" text-rendering="inherit" font-size="12" dy=".8em" y="283.5" x="385.5">动态链接</text></g></g><g id="minder_node39"><g id="node_expander38" style="cursor: pointer;" display="none"><path id="kity_path_336" fill="white" stroke="gray" d="M380.5,315.5A6,6,0,1,1,368.5,315.5A6,6,0,1,1,380.5,315.5"></path><path id="kity_path_337" fill="none" stroke="gray"></path></g><path id="node_outline39" fill="#00b050" stroke="none" d="M385.5,306.5h48a5,5,0,0,1,5,5v8a5,5,0,0,1,-5,5h-48a5,5,0,0,1,-5,-5v-8a5,5,0,0,1,5,-5z" stroke-width="3"></path><g id="node_text39" fill="black"><text id="kity_text_333" text-rendering="inherit" font-size="12" dy=".8em" y="309.5" x="385.5">静态链接</text></g></g><g id="minder_node40"><g id="node_expander39" style="cursor: pointer;"><path id="kity_path_344" fill="white" stroke="gray" d="M256.5,960.5A6,6,0,1,1,244.5,960.5A6,6,0,1,1,256.5,960.5"></path><path id="kity_path_345" fill="none" stroke="gray" d="M246,960.5L255,960.5"></path></g><path id="node_outline40" fill="none" stroke="none" d="M261.5,951.5h45a5,5,0,0,1,5,5v8a5,5,0,0,1,-5,5h-45a5,5,0,0,1,-5,-5v-8a5,5,0,0,1,5,-5z" stroke-width="3"></path><g id="node_text40" fill="black"><text id="kity_text_341" text-rendering="inherit" font-size="12" dy=".8em" y="954.5" x="261.5">Security</text></g></g><g id="minder_node41"><g id="node_expander40" style="cursor: pointer;"><path id="kity_path_352" fill="white" stroke="gray" d="M327.5,921.5A6,6,0,1,1,315.5,921.5A6,6,0,1,1,327.5,921.5"></path><path id="kity_path_353" fill="none" stroke="gray" d="M317,921.5L326,921.5"></path></g><path id="node_outline41" fill="none" stroke="none" d="M332.5,912.5h48a5,5,0,0,1,5,5v8a5,5,0,0,1,-5,5h-48a5,5,0,0,1,-5,-5v-8a5,5,0,0,1,5,-5z" stroke-width="3"></path><g id="node_text41" fill="black"><text id="kity_text_349" text-rendering="inherit" font-size="12" dy=".8em" y="915.5" x="332.5">对称加密</text></g></g><g id="minder_node42" opacity="1"><g id="node_expander41" style="cursor: pointer;"><path id="kity_path_360" fill="white" stroke="gray" d="M327.5,986.5A6,6,0,1,1,315.5,986.5A6,6,0,1,1,327.5,986.5"></path><path id="kity_path_361" fill="none" stroke="gray" d="M317,986.5L326,986.5"></path></g><path id="node_outline42" fill="none" stroke="none" d="M332.5,977.5h60a5,5,0,0,1,5,5v8a5,5,0,0,1,-5,5h-60a5,5,0,0,1,-5,-5v-8a5,5,0,0,1,5,-5z" stroke-width="3"></path><g id="node_text42" fill="black"><text id="kity_text_357" text-rendering="inherit" font-size="12" dy=".8em" y="980.5" x="332.5">非对称加密</text></g></g><g id="minder_node43"><g id="node_expander42" style="cursor: pointer;"><path id="kity_path_368" fill="white" stroke="gray" d="M327.5,1038.5A6,6,0,1,1,315.5,1038.5A6,6,0,1,1,327.5,1038.5"></path><path id="kity_path_369" fill="none" stroke="gray" d="M317,1038.5L326,1038.5"></path></g><path id="node_outline43" fill="none" stroke="none" d="M332.5,1029.5h72a5,5,0,0,1,5,5v8a5,5,0,0,1,-5,5h-72a5,5,0,0,1,-5,-5v-8a5,5,0,0,1,5,-5z" stroke-width="3"></path><g id="node_text43" fill="black"><text id="kity_text_365" text-rendering="inherit" font-size="12" dy=".8em" y="1032.5" x="332.5">公钥基础设施</text></g></g><g id="minder_node44"><g id="node_expander43" style="cursor: pointer;"><path id="kity_path_376" fill="white" stroke="gray" d="M327.5,1103.5A6,6,0,1,1,315.5,1103.5A6,6,0,1,1,327.5,1103.5"></path><path id="kity_path_377" fill="none" stroke="gray" d="M317,1103.5L326,1103.5"></path></g><path id="node_outline44" fill="none" stroke="none" d="M332.5,1094.5h48a5,5,0,0,1,5,5v8a5,5,0,0,1,-5,5h-48a5,5,0,0,1,-5,-5v-8a5,5,0,0,1,5,-5z" stroke-width="3"></path><g id="node_text44" fill="black"><text id="kity_text_373" text-rendering="inherit" font-size="12" dy=".8em" y="1097.5" x="332.5">用户认证</text></g></g><g id="minder_node45"><g id="node_expander44" style="cursor: pointer;" display="none"><path id="kity_path_384" fill="white" stroke="gray" d="M362.5,237.5A6,6,0,1,1,350.5,237.5A6,6,0,1,1,362.5,237.5"></path><path id="kity_path_385" fill="none" stroke="gray"></path></g><path id="node_outline45" fill="#ffc000" stroke="none" d="M367.5,228.5h24a5,5,0,0,1,5,5v8a5,5,0,0,1,-5,5h-24a5,5,0,0,1,-5,-5v-8a5,5,0,0,1,5,-5z" stroke-width="3"></path><g id="node_text45" fill="black"><text id="kity_text_381" text-rendering="inherit" font-size="12" dy=".8em" y="231.5" x="367.5">参数</text></g></g><g id="minder_node46"><g id="node_expander45" style="cursor: pointer;"><path id="kity_path_392" fill="white" stroke="gray" d="M306.5,354.5A6,6,0,1,1,294.5,354.5A6,6,0,1,1,306.5,354.5"></path><path id="kity_path_393" fill="none" stroke="gray" d="M296,354.5L305,354.5"></path></g><path id="node_outline46" fill="#c00000" stroke="none" d="M311.5,345.5h72a5,5,0,0,1,5,5v8a5,5,0,0,1,-5,5h-72a5,5,0,0,1,-5,-5v-8a5,5,0,0,1,5,-5z" stroke-width="3"></path><g id="node_text46" fill="black"><text id="kity_text_389" text-rendering="inherit" font-size="12" dy=".8em" y="348.5" x="311.5">编译系统构建</text></g></g><g id="minder_node47"><g id="node_expander46" style="cursor: pointer;" display="none"><path id="kity_path_400" fill="white" stroke="gray" d="M404.5,341.5A6,6,0,1,1,392.5,341.5A6,6,0,1,1,404.5,341.5"></path><path id="kity_path_401" fill="none" stroke="gray"></path></g><path id="node_outline47" fill="#c00000" stroke="none" d="M409.5,332.5h49a5,5,0,0,1,5,5v8a5,5,0,0,1,-5,5h-49a5,5,0,0,1,-5,-5v-8a5,5,0,0,1,5,-5z" stroke-width="3"></path><g id="node_text47" fill="black"><text id="kity_text_397" text-rendering="inherit" font-size="12" dy=".8em" y="335.5" x="409.5">Makefile</text></g></g><g id="minder_node48"><g id="node_expander47" style="cursor: pointer;" display="none"><path id="kity_path_408" fill="white" stroke="gray" d="M404.5,367.5A6,6,0,1,1,392.5,367.5A6,6,0,1,1,404.5,367.5"></path><path id="kity_path_409" fill="none" stroke="gray"></path></g><path id="node_outline48" fill="#c00000" stroke="none" d="M409.5,358.5h43a5,5,0,0,1,5,5v8a5,5,0,0,1,-5,5h-43a5,5,0,0,1,-5,-5v-8a5,5,0,0,1,5,-5z" stroke-width="3"></path><g id="node_text48" fill="black"><text id="kity_text_405" text-rendering="inherit" font-size="12" dy=".8em" y="361.5" x="409.5">CMAKE</text></g></g><g id="minder_node49"><g id="node_expander48" style="cursor: pointer;" display="none"><path id="kity_path_416" fill="white" stroke="gray" d="M435.5,496.5A6,6,0,1,1,423.5,496.5A6,6,0,1,1,435.5,496.5"></path><path id="kity_path_417" fill="none" stroke="gray"></path></g><path id="node_outline49" fill="#ffc000" stroke="none" d="M440.5,487.5h48a5,5,0,0,1,5,5v8a5,5,0,0,1,-5,5h-48a5,5,0,0,1,-5,-5v-8a5,5,0,0,1,5,-5z" stroke-width="3"></path><g id="node_text49" fill="black"><text id="kity_text_413" text-rendering="inherit" font-size="12" dy=".8em" y="490.5" x="440.5">调试内核</text></g></g><g id="minder_node50"><g id="node_expander49" style="cursor: pointer;" display="none"><path id="kity_path_424" fill="white" stroke="gray" d="M397.5,600.5A6,6,0,1,1,385.5,600.5A6,6,0,1,1,397.5,600.5"></path><path id="kity_path_425" fill="none" stroke="gray"></path></g><path id="node_outline50" fill="#c00000" stroke="none" d="M402.5,591.5h48a5,5,0,0,1,5,5v8a5,5,0,0,1,-5,5h-48a5,5,0,0,1,-5,-5v-8a5,5,0,0,1,5,-5z" stroke-width="3"></path><g id="node_text50" fill="black"><text id="kity_text_421" text-rendering="inherit" font-size="12" dy=".8em" y="594.5" x="402.5">调试系统</text></g></g><g id="minder_node51"><g id="node_expander50" style="cursor: pointer;" display="none"><path id="kity_path_432" fill="white" stroke="gray" d="M318.5,731.5A6,6,0,1,1,306.5,731.5A6,6,0,1,1,318.5,731.5"></path><path id="kity_path_433" fill="none" stroke="gray"></path></g><path id="node_outline51" fill="#ffc000" stroke="none" d="M323.5,722.5h48a5,5,0,0,1,5,5v8a5,5,0,0,1,-5,5h-48a5,5,0,0,1,-5,-5v-8a5,5,0,0,1,5,-5z" stroke-width="3"></path><g id="node_text51" fill="black"><text id="kity_text_429" text-rendering="inherit" font-size="12" dy=".8em" y="725.5" x="323.5">调试技术</text></g></g><g id="minder_node52"><g id="node_expander51" style="cursor: pointer;" display="none"><path id="kity_path_440" fill="white" stroke="gray" d="M436.5,679.5A6,6,0,1,1,424.5,679.5A6,6,0,1,1,436.5,679.5"></path><path id="kity_path_441" fill="none" stroke="gray"></path></g><path id="node_outline52" fill="#ffc000" stroke="none" d="M441.5,670.5h34a5,5,0,0,1,5,5v8a5,5,0,0,1,-5,5h-34a5,5,0,0,1,-5,-5v-8a5,5,0,0,1,5,-5z" stroke-width="3"></path><g id="node_text52" fill="black"><text id="kity_text_437" text-rendering="inherit" font-size="12" dy=".8em" y="673.5" x="441.5">C程序</text></g></g><g id="minder_node53" opacity="1"><g id="node_expander52" style="cursor: pointer;" display="none"><path id="kity_path_448" fill="white" stroke="gray" d="M318.5,705.5A6,6,0,1,1,306.5,705.5A6,6,0,1,1,318.5,705.5"></path><path id="kity_path_449" fill="none" stroke="gray"></path></g><path id="node_outline53" fill="#ffc000" stroke="none" d="M323.5,696.5h68a5,5,0,0,1,5,5v8a5,5,0,0,1,-5,5h-68a5,5,0,0,1,-5,-5v-8a5,5,0,0,1,5,-5z" stroke-width="3"></path><g id="node_text53" fill="black"><text id="kity_text_445" text-rendering="inherit" font-size="12" dy=".8em" y="699.5" x="323.5">Baremental</text></g></g><g id="minder_node54"><g id="node_expander53" style="cursor: pointer;" display="none"><path id="kity_path_456" fill="white" stroke="gray" d="M401.5,895.5A6,6,0,1,1,389.5,895.5A6,6,0,1,1,401.5,895.5"></path><path id="kity_path_457" fill="none" stroke="gray"></path></g><path id="node_outline54" fill="#c00000" stroke="none" d="M406.5,886.5h21a5,5,0,0,1,5,5v8a5,5,0,0,1,-5,5h-21a5,5,0,0,1,-5,-5v-8a5,5,0,0,1,5,-5z" stroke-width="3"></path><g id="node_text54" fill="black"><text id="kity_text_453" text-rendering="inherit" font-size="12" dy=".8em" y="889.5" x="406.5">AES</text></g></g><g id="minder_node55"><g id="node_expander54" style="cursor: pointer;" display="none"><path id="kity_path_464" fill="white" stroke="gray" d="M401.5,921.5A6,6,0,1,1,389.5,921.5A6,6,0,1,1,401.5,921.5"></path><path id="kity_path_465" fill="none" stroke="gray"></path></g><path id="node_outline55" fill="#c00000" stroke="none" d="M406.5,912.5h24a5,5,0,0,1,5,5v8a5,5,0,0,1,-5,5h-24a5,5,0,0,1,-5,-5v-8a5,5,0,0,1,5,-5z" stroke-width="3"></path><g id="node_text55" fill="black"><text id="kity_text_461" text-rendering="inherit" font-size="12" dy=".8em" y="915.5" x="406.5">SM4</text></g></g><g id="minder_node56"><g id="node_expander55" style="cursor: pointer;" display="none"><path id="kity_path_472" fill="white" stroke="gray" d="M401.5,947.5A6,6,0,1,1,389.5,947.5A6,6,0,1,1,401.5,947.5"></path><path id="kity_path_473" fill="none" stroke="gray"></path></g><path id="node_outline56" fill="#c00000" stroke="none" d="M406.5,938.5h20a5,5,0,0,1,5,5v8a5,5,0,0,1,-5,5h-20a5,5,0,0,1,-5,-5v-8a5,5,0,0,1,5,-5z" stroke-width="3"></path><g id="node_text56" fill="black"><text id="kity_text_469" text-rendering="inherit" font-size="12" dy=".8em" y="941.5" x="406.5">etc</text></g></g><g id="minder_node59" opacity="1"><g id="node_expander58" style="cursor: pointer;"><path id="kity_path_496" fill="white" stroke="gray" d="M327.5,817.5A6,6,0,1,1,315.5,817.5A6,6,0,1,1,327.5,817.5"></path><path id="kity_path_497" fill="none" stroke="gray" d="M317,817.5L326,817.5"></path></g><path id="node_outline59" fill="none" stroke="none" d="M332.5,808.5h48a5,5,0,0,1,5,5v8a5,5,0,0,1,-5,5h-48a5,5,0,0,1,-5,-5v-8a5,5,0,0,1,5,-5z" stroke-width="3"></path><g id="node_text59" fill="black"><text id="kity_text_493" text-rendering="inherit" font-size="12" dy=".8em" y="811.5" x="332.5">消息验证</text></g></g><g id="kity_g_12" display="none"><path id="kity_path_13" fill="none" stroke="rgb(66, 94, 112)" d="M314.5,822.5h48a5,5,0,0,1,5,5v8a5,5,0,0,1,-5,5h-48a5,5,0,0,1,-5,-5v-8a5,5,0,0,1,5,-5z" stroke-width="5"></path></g><g id="minder_node60"><g id="node_expander59" style="cursor: pointer;" display="none"><path id="kity_path_504" fill="white" stroke="gray" d="M401.5,765.5A6,6,0,1,1,389.5,765.5A6,6,0,1,1,401.5,765.5"></path><path id="kity_path_505" fill="none" stroke="gray"></path></g><path id="node_outline60" fill="#c00000" stroke="none" d="M406.5,756.5h31a5,5,0,0,1,5,5v8a5,5,0,0,1,-5,5h-31a5,5,0,0,1,-5,-5v-8a5,5,0,0,1,5,-5z" stroke-width="3"></path><g id="node_text60" fill="black"><text id="kity_text_501" text-rendering="inherit" font-size="12" dy=".8em" y="759.5" x="406.5">HASH</text></g></g><g id="minder_node61"><g id="node_expander60" style="cursor: pointer;" display="none"><path id="kity_path_512" fill="white" stroke="gray" d="M401.5,791.5A6,6,0,1,1,389.5,791.5A6,6,0,1,1,401.5,791.5"></path><path id="kity_path_513" fill="none" stroke="gray"></path></g><path id="node_outline61" fill="#c00000" stroke="none" d="M406.5,782.5h27a5,5,0,0,1,5,5v8a5,5,0,0,1,-5,5h-27a5,5,0,0,1,-5,-5v-8a5,5,0,0,1,5,-5z" stroke-width="3"></path><g id="node_text61" fill="black"><text id="kity_text_509" text-rendering="inherit" font-size="12" dy=".8em" y="785.5" x="406.5">MD5</text></g></g><g id="minder_node62"><g id="node_expander61" style="cursor: pointer;" display="none"><path id="kity_path_520" fill="white" stroke="gray" d="M401.5,817.5A6,6,0,1,1,389.5,817.5A6,6,0,1,1,401.5,817.5"></path><path id="kity_path_521" fill="none" stroke="gray"></path></g><path id="node_outline62" fill="#c00000" stroke="none" d="M406.5,808.5h39a5,5,0,0,1,5,5v8a5,5,0,0,1,-5,5h-39a5,5,0,0,1,-5,-5v-8a5,5,0,0,1,5,-5z" stroke-width="3"></path><g id="node_text62" fill="black"><text id="kity_text_517" text-rendering="inherit" font-size="12" dy=".8em" y="811.5" x="406.5">CMAC</text></g></g><g id="minder_node63"><g id="node_expander62" style="cursor: pointer;" display="none"><path id="kity_path_528" fill="white" stroke="gray" d="M401.5,843.5A6,6,0,1,1,389.5,843.5A6,6,0,1,1,401.5,843.5"></path><path id="kity_path_529" fill="none" stroke="gray"></path></g><path id="node_outline63" fill="#c00000" stroke="none" d="M406.5,834.5h38a5,5,0,0,1,5,5v8a5,5,0,0,1,-5,5h-38a5,5,0,0,1,-5,-5v-8a5,5,0,0,1,5,-5z" stroke-width="3"></path><g id="node_text63" fill="black"><text id="kity_text_525" text-rendering="inherit" font-size="12" dy=".8em" y="837.5" x="406.5">HMAC</text></g></g><g id="minder_node64"><g id="node_expander63" style="cursor: pointer;" display="none"><path id="kity_path_536" fill="white" stroke="gray" d="M401.5,869.5A6,6,0,1,1,389.5,869.5A6,6,0,1,1,401.5,869.5"></path><path id="kity_path_537" fill="none" stroke="gray"></path></g><path id="node_outline64" fill="#c00000" stroke="none" d="M406.5,860.5h24a5,5,0,0,1,5,5v8a5,5,0,0,1,-5,5h-24a5,5,0,0,1,-5,-5v-8a5,5,0,0,1,5,-5z" stroke-width="3"></path><g id="node_text64" fill="black"><text id="kity_text_533" text-rendering="inherit" font-size="12" dy=".8em" y="863.5" x="406.5">SM3</text></g></g><g id="minder_node57"><g id="node_expander56" style="cursor: pointer;" display="none"><path id="kity_path_480" fill="white" stroke="gray" d="M413.5,973.5A6,6,0,1,1,401.5,973.5A6,6,0,1,1,413.5,973.5"></path><path id="kity_path_481" fill="none" stroke="gray"></path></g><path id="node_outline57" fill="#c00000" stroke="none" d="M418.5,964.5h22a5,5,0,0,1,5,5v8a5,5,0,0,1,-5,5h-22a5,5,0,0,1,-5,-5v-8a5,5,0,0,1,5,-5z" stroke-width="3"></path><g id="node_text57" fill="black"><text id="kity_text_477" text-rendering="inherit" font-size="12" dy=".8em" y="967.5" x="418.5">RSA</text></g></g><g id="minder_node58"><g id="node_expander57" style="cursor: pointer;" display="none"><path id="kity_path_488" fill="white" stroke="gray" d="M413.5,999.5A6,6,0,1,1,401.5,999.5A6,6,0,1,1,413.5,999.5"></path><path id="kity_path_489" fill="none" stroke="gray"></path></g><path id="node_outline58" fill="#c00000" stroke="none" d="M418.5,990.5h24a5,5,0,0,1,5,5v8a5,5,0,0,1,-5,5h-24a5,5,0,0,1,-5,-5v-8a5,5,0,0,1,5,-5z" stroke-width="3"></path><g id="node_text58" fill="black"><text id="kity_text_485" text-rendering="inherit" font-size="12" dy=".8em" y="993.5" x="418.5">SM2</text></g></g><g id="minder_node65"><g id="node_expander64" style="cursor: pointer;" display="none"><path id="kity_path_546" fill="white" stroke="gray" d="M425.5,1025.5A6,6,0,1,1,413.5,1025.5A6,6,0,1,1,425.5,1025.5"></path><path id="kity_path_547" fill="none" stroke="gray"></path></g><path id="node_outline65" fill="#c00000" stroke="none" d="M430.5,1016.5h17a5,5,0,0,1,5,5v8a5,5,0,0,1,-5,5h-17a5,5,0,0,1,-5,-5v-8a5,5,0,0,1,5,-5z" stroke-width="3"></path><g id="node_text65" fill="black"><text id="kity_text_543" text-rendering="inherit" font-size="12" dy=".8em" y="1019.5" x="430.5">PKI</text></g></g><g id="minder_node66"><g id="node_expander65" style="cursor: pointer;" display="none"><path id="kity_path_554" fill="white" stroke="gray" d="M425.5,1051.5A6,6,0,1,1,413.5,1051.5A6,6,0,1,1,425.5,1051.5"></path><path id="kity_path_555" fill="none" stroke="gray"></path></g><path id="node_outline66" fill="#c00000" stroke="none" d="M430.5,1042.5h84a5,5,0,0,1,5,5v8a5,5,0,0,1,-5,5h-84a5,5,0,0,1,-5,-5v-8a5,5,0,0,1,5,-5z" stroke-width="3"></path><g id="node_text66" fill="black"><text id="kity_text_551" text-rendering="inherit" font-size="12" dy=".8em" y="1045.5" x="430.5">公钥加密标准等</text></g></g><g id="minder_node67"><g id="node_expander66" style="cursor: pointer;" display="none"><path id="kity_path_562" fill="white" stroke="gray" d="M401.5,1077.5A6,6,0,1,1,389.5,1077.5A6,6,0,1,1,401.5,1077.5"></path><path id="kity_path_563" fill="none" stroke="gray"></path></g><path id="node_outline67" fill="#c00000" stroke="none" d="M406.5,1068.5h24a5,5,0,0,1,5,5v8a5,5,0,0,1,-5,5h-24a5,5,0,0,1,-5,-5v-8a5,5,0,0,1,5,-5z" stroke-width="3"></path><g id="node_text67" fill="black"><text id="kity_text_559" text-rendering="inherit" font-size="12" dy=".8em" y="1071.5" x="406.5">令牌</text></g></g><g id="minder_node68"><g id="node_expander67" style="cursor: pointer;" display="none"><path id="kity_path_570" fill="white" stroke="gray" d="M401.5,1103.5A6,6,0,1,1,389.5,1103.5A6,6,0,1,1,401.5,1103.5"></path><path id="kity_path_571" fill="none" stroke="gray"></path></g><path id="node_outline68" fill="#c00000" stroke="none" d="M406.5,1094.5h24a5,5,0,0,1,5,5v8a5,5,0,0,1,-5,5h-24a5,5,0,0,1,-5,-5v-8a5,5,0,0,1,5,-5z" stroke-width="3"></path><g id="node_text68" fill="black"><text id="kity_text_567" text-rendering="inherit" font-size="12" dy=".8em" y="1097.5" x="406.5">证书</text></g></g><g id="minder_node69"><g id="node_expander68" style="cursor: pointer;" display="none"><path id="kity_path_578" fill="white" stroke="gray" d="M401.5,1129.5A6,6,0,1,1,389.5,1129.5A6,6,0,1,1,401.5,1129.5"></path><path id="kity_path_579" fill="none" stroke="gray"></path></g><path id="node_outline69" fill="none" stroke="none" d="M406.5,1120.5h24a5,5,0,0,1,5,5v8a5,5,0,0,1,-5,5h-24a5,5,0,0,1,-5,-5v-8a5,5,0,0,1,5,-5z" stroke-width="3"></path><g id="node_text69" fill="black"><text id="kity_text_575" text-rendering="inherit" font-size="12" dy=".8em" y="1123.5" x="406.5">生物</text></g></g><g id="minder_node70"><g id="node_expander69" style="cursor: pointer;" display="none"><path id="kity_path_586" fill="white" stroke="gray" d="M391.5,210.5A6,6,0,1,1,379.5,210.5A6,6,0,1,1,391.5,210.5"></path><path id="kity_path_587" fill="none" stroke="gray"></path></g><path id="node_outline70" fill="#00b050" stroke="none" d="M396.5,201.5h106a5,5,0,0,1,5,5v8a5,5,0,0,1,-5,5h-106a5,5,0,0,1,-5,-5v-8a5,5,0,0,1,5,-5z" stroke-width="3"></path><g id="node_text70" fill="black"><text id="kity_text_583" text-rendering="inherit" font-size="12" dy=".8em" y="204.5" x="396.5">单片机DSP微处理器</text></g></g></g></g></svg>